<?xml version="1.0" encoding="UTF-8"?>
<svg width="200" height="200" viewBox="0 0 200 200" fill="none" xmlns="http://www.w3.org/2000/svg">
    <rect width="200" height="200" fill="#F5F5F5"/>
    <path d="M100 70C88.954 70 80 78.954 80 90C80 101.046 88.954 110 100 110C111.046 110 120 101.046 120 90C120 78.954 111.046 70 100 70ZM100 100C94.477 100 90 95.523 90 90C90 84.477 94.477 80 100 80C105.523 80 110 84.477 110 90C110 95.523 105.523 100 100 100Z" fill="#BDBDBD"/>
    <path d="M140 60H60C57.791 60 56 61.791 56 64V116C56 118.209 57.791 120 60 120H140C142.209 120 144 118.209 144 116V64C144 61.791 142.209 60 140 60ZM140 116H60V64H140V116Z" fill="#BDBDBD"/>
    <path d="M130 80H70V100H130V80Z" fill="#BDBDBD"/>
</svg> 